<?xml version="1.0" standalone="no"?>
<!DOCTYPE svg PUBLIC "-//W3C//DTD SVG 20010904//EN"
 "http://www.w3.org/TR/2001/REC-SVG-20010904/DTD/svg10.dtd">
<svg version="1.0" xmlns="http://www.w3.org/2000/svg"
 width="260.000000pt" height="260.000000pt" viewBox="0 0 260.000000 260.000000"
 preserveAspectRatio="xMidYMid meet">
<metadata>
Created by potrace 1.11, written by Peter Selinger 2001-2013
</metadata>
<g transform="translate(0.000000,260.000000) scale(0.100000,-0.100000)"
fill="#000000" stroke="none">
<path d="M0 1300 l0 -1300 1300 0 1300 0 0 1300 0 1300 -1300 0 -1300 0 0
-1300z m2095 750 c60 -37 107 -133 136 -275 14 -72 17 -294 6 -462 l-8 -122
85 -62 c52 -38 86 -70 86 -81 0 -40 -78 -50 -149 -18 -24 11 -45 20 -46 20 -2
0 -9 -26 -15 -57 -18 -87 -74 -252 -110 -324 -146 -290 -361 -379 -454 -186
-86 179 -39 443 113 625 43 51 144 131 183 144 8 3 -3 23 -31 54 -57 65 -116
166 -135 233 -51 174 28 417 162 502 57 36 128 40 177 9z m-891 -158 c53 -47
80 -193 65 -351 -5 -54 -22 -176 -39 -272 -32 -189 -35 -230 -20 -260 24 -44
68 -13 138 100 l40 64 20 -64 20 -64 -24 -45 c-94 -171 -254 -203 -316 -63
-18 40 -20 60 -15 137 3 50 18 159 32 241 31 180 43 381 26 414 -21 38 -60 25
-99 -33 -58 -87 -107 -276 -162 -626 -25 -157 -32 -188 -51 -202 -30 -25 -74
-23 -93 4 -22 31 -20 71 14 280 54 338 64 548 26 586 -12 13 -20 14 -34 6 -62
-38 -182 -380 -238 -679 -14 -77 -28 -150 -30 -162 -10 -53 -84 -73 -124 -33
-25 25 -25 31 5 204 25 147 49 360 60 544 6 86 4 103 -9 108 -21 8 -75 -36
-111 -91 -55 -83 -83 -34 -45 80 49 146 151 222 223 165 47 -37 60 -130 45
-305 l-7 -80 24 69 c78 219 174 347 262 346 35 -1 55 -16 79 -60 16 -29 19
-55 18 -160 l0 -125 31 92 c18 50 47 114 65 143 68 105 164 145 224 92z"/>
<path d="M1989 1925 c-14 -7 -37 -31 -52 -52 -46 -66 -60 -113 -61 -193 -1
-62 4 -85 26 -133 41 -87 177 -251 195 -234 3 4 8 109 11 234 5 254 -4 330
-44 369 -26 27 -39 29 -75 9z"/>
<path d="M2003 1124 c-104 -51 -226 -213 -267 -353 -9 -30 -16 -83 -16 -118 0
-128 52 -159 136 -81 80 73 168 285 204 486 17 92 10 100 -57 66z"/>
</g>
</svg>
