<?xml version="1.0" standalone="no"?>
<!DOCTYPE svg PUBLIC "-//W3C//DTD SVG 20010904//EN"
 "http://www.w3.org/TR/2001/REC-SVG-20010904/DTD/svg10.dtd">
<svg version="1.0" xmlns="http://www.w3.org/2000/svg"
 width="328.000000pt" height="328.000000pt" viewBox="0 0 328.000000 328.000000"
 preserveAspectRatio="xMidYMid meet">
<metadata>
Created by potrace 1.11, written by Peter Selinger 2001-2013
</metadata>
<g transform="translate(0.000000,328.000000) scale(0.100000,-0.100000)"
fill="#000000" stroke="none">
<path d="M1398 2705 c-4 -5 -58 -9 -120 -10 -111 -2 -229 -22 -298 -51 -19 -8
-44 -16 -55 -17 -47 -8 -172 -51 -197 -68 -14 -11 -29 -19 -33 -19 -4 0 -16
-11 -27 -25 -11 -14 -27 -25 -36 -25 -9 0 -30 -12 -46 -26 l-29 -25 22 -15
c26 -19 27 -30 1 -37 -14 -3 -20 -14 -20 -31 0 -30 3 -32 24 -11 9 9 17 11 21
5 3 -5 1 -10 -5 -10 -6 0 -9 -4 -6 -9 4 -5 27 -9 54 -9 26 0 58 -1 72 -2 23
-2 23 -3 -5 -9 -16 -4 -29 -12 -28 -17 1 -5 -13 -8 -33 -6 -21 3 -34 0 -34 -7
0 -6 -9 -11 -20 -11 -22 0 -27 -15 -8 -26 7 -5 8 -3 3 6 -6 9 -2 10 15 5 16
-5 20 -4 15 4 -5 8 2 10 22 5 37 -9 42 -14 13 -14 -13 0 -20 -3 -16 -7 4 -5
12 -8 16 -8 5 0 16 -9 25 -20 l15 -20 -7 20 c-6 18 -5 19 11 6 9 -8 15 -20 12
-28 -3 -8 -2 -11 3 -8 11 6 60 -14 79 -32 7 -7 23 -13 35 -12 21 1 21 1 -3 12
-14 7 -26 19 -28 27 -3 12 -1 13 9 3 7 -7 27 -13 44 -13 20 0 26 -3 16 -9 -19
-12 0 -21 49 -25 22 -2 44 -6 48 -10 4 -4 -26 -5 -66 -2 -40 3 -70 2 -68 -3 3
-5 35 -11 71 -14 71 -5 88 -13 65 -27 -13 -8 -12 -10 3 -10 9 0 17 -4 17 -10
0 -5 6 -7 14 -4 8 3 17 1 21 -5 3 -6 -1 -11 -9 -11 -22 0 -20 -27 2 -33 16 -4
16 -5 0 -6 -21 -1 -24 -17 -5 -24 6 -3 -13 -6 -43 -7 -47 -2 -51 -3 -25 -10
17 -4 23 -9 15 -10 -19 -3 -17 -3 -70 4 l-45 5 40 -14 c22 -7 33 -14 23 -14
-9 -1 -19 -7 -21 -13 -4 -10 -6 -10 -6 0 -1 6 -8 12 -17 12 -8 0 -12 -5 -9
-10 4 -7 -8 -8 -37 -4 -30 4 -39 3 -29 -4 11 -8 6 -12 -22 -17 -19 -4 -40 -4
-46 -1 -5 4 -12 3 -15 -2 -2 -4 -17 -7 -33 -6 -15 1 -46 2 -67 3 -52 1 -42 10
19 16 27 2 55 11 64 20 9 9 11 15 4 15 -6 0 -13 -5 -15 -11 -2 -7 -15 -9 -35
-5 -24 6 -31 12 -27 24 5 15 4 15 -6 0 -6 -10 -21 -18 -33 -17 -21 0 -21 1 -2
9 16 7 14 9 -15 9 -20 1 -30 5 -23 9 9 6 6 11 -8 21 -17 10 -20 10 -13 -1 4
-7 -3 -4 -15 7 l-22 19 5 -27 c3 -15 0 -27 -6 -27 -5 0 -8 6 -5 14 8 19 -19
41 -52 42 -14 1 -29 2 -33 3 -11 1 2 31 14 31 5 0 7 -3 5 -7 -3 -5 6 -8 19 -8
32 0 30 3 -8 21 -32 14 -32 15 -5 11 33 -5 35 1 5 12 -16 6 -27 2 -42 -14 -12
-12 -27 -20 -34 -18 -7 3 -10 -1 -6 -11 3 -9 12 -16 20 -16 7 0 19 -10 25 -22
11 -21 11 -22 -5 -9 -26 22 -56 21 -56 -1 0 -21 -11 -23 -29 -5 -18 18 -4 -19
23 -58 20 -30 20 -30 0 -12 -28 23 -32 22 -26 -9 3 -19 7 -22 13 -12 9 14 10
12 14 -40 2 -23 -1 -32 -10 -29 -8 4 -10 -3 -7 -19 2 -13 -1 -30 -7 -38 -9
-11 -6 -15 14 -20 14 -4 25 -12 25 -18 0 -6 7 -19 15 -28 13 -14 12 -16 -5
-17 -14 -1 -22 7 -29 30 -7 23 -9 26 -10 11 -1 -12 7 -32 17 -45 10 -13 29
-44 42 -69 12 -25 27 -54 33 -65 l10 -20 -24 20 c-13 11 -28 25 -32 30 -10 12
2 -70 14 -102 9 -23 29 -32 29 -13 0 6 7 10 16 10 11 0 15 6 11 20 -7 27 0 25
29 -10 14 -16 53 -50 87 -75 34 -26 85 -68 113 -95 49 -48 51 -49 79 -34 26
14 52 13 107 -2 9 -3 19 -15 22 -28 3 -13 30 -48 60 -79 40 -42 59 -55 73 -51
15 5 14 4 -3 -9 -19 -14 -27 -14 -75 -2 -36 10 -55 11 -60 4 -4 -7 -18 -3 -40
10 -19 12 -43 21 -53 21 -25 0 -118 44 -183 86 -61 40 -68 42 -52 12 12 -22
11 -22 -7 -9 -46 35 -95 94 -90 107 3 9 1 12 -4 9 -11 -7 -13 25 -4 50 5 13 8
14 15 3 7 -10 9 -9 9 5 0 10 -8 17 -20 17 -11 0 -20 5 -20 10 0 6 -5 10 -11
10 -5 0 -7 -5 -3 -12 4 -7 9 -32 10 -57 2 -28 11 -52 24 -66 11 -11 20 -27 20
-34 0 -20 60 -141 70 -141 5 0 11 -8 15 -19 9 -30 264 -226 347 -267 141 -70
221 -100 378 -139 36 -9 81 -20 100 -25 38 -10 228 -28 320 -31 173 -5 451 42
634 108 204 72 401 194 506 311 70 77 137 216 149 307 13 95 19 185 12 185 -3
0 -35 -27 -71 -60 -35 -33 -66 -60 -68 -60 -2 0 0 9 3 21 6 19 5 19 -17 7 -66
-37 -98 -85 -103 -156 -2 -24 -7 -47 -11 -51 -4 -3 -4 4 -1 17 4 18 1 22 -19
22 -27 0 -30 -14 -9 -50 22 -38 18 -48 -22 -67 -21 -9 -41 -19 -45 -21 -5 -2
-8 8 -8 23 0 21 -4 26 -17 21 -9 -4 -47 -12 -85 -18 -71 -13 -84 -22 -44 -32
40 -10 40 -35 -1 -73 -58 -55 -152 -89 -168 -62 -4 6 -14 8 -22 5 -8 -4 -33 4
-54 16 -30 17 -42 19 -51 10 -7 -7 -20 -12 -30 -12 -20 0 -24 -15 -7 -25 19
-12 4 -27 -46 -46 -47 -18 -51 -18 -63 -2 -10 14 -16 15 -30 6 -14 -8 -26 -7
-51 3 -23 10 -38 11 -51 4 -10 -6 -27 -10 -37 -10 -11 0 -29 -9 -41 -20 -12
-11 -31 -20 -43 -20 -20 0 -21 -2 -7 -17 9 -10 15 -30 14 -44 -1 -20 2 -25 14
-21 12 4 12 2 3 -8 -15 -17 -190 -14 -240 4 -21 8 -68 30 -105 50 -37 19 -85
38 -105 41 -77 12 -113 26 -144 58 -18 17 -37 31 -42 29 -12 -4 -38 18 -32 28
3 4 -2 13 -9 19 -11 9 -19 9 -33 0 -15 -9 -26 -8 -53 6 -25 13 -30 19 -19 26
8 5 22 9 33 9 13 0 16 5 11 18 -15 36 -13 62 5 72 19 10 50 4 50 -10 0 -12 43
-20 55 -10 16 13 25 2 25 -32 0 -37 25 -46 105 -41 80 5 88 8 76 31 -8 16 -5
18 27 20 20 1 65 -4 100 -10 52 -10 65 -9 72 1 5 10 40 15 118 17 120 4 146 0
137 -24 -6 -17 12 -42 31 -42 8 0 22 8 33 19 20 20 86 37 94 23 3 -4 18 -7 34
-6 22 1 27 5 25 22 -3 18 4 22 45 28 26 3 65 15 85 25 21 11 48 19 60 19 21
-1 22 -2 6 -14 -20 -14 -24 -36 -8 -36 6 0 10 4 10 9 0 12 78 64 98 66 10 0
24 5 32 10 17 11 69 31 117 46 18 5 35 14 38 20 4 5 18 3 35 -7 26 -16 29 -16
45 -1 15 16 15 17 -4 17 -12 0 -21 5 -21 11 0 5 4 8 10 4 5 -3 16 7 24 22 35
64 101 117 116 93 11 -18 29 -3 23 19 -3 13 2 21 17 26 16 5 21 13 17 30 -4
25 8 35 44 35 29 0 51 60 48 129 -2 46 0 57 14 59 9 2 17 6 17 9 0 7 -71 103
-76 103 -2 0 -1 -19 2 -42 5 -29 3 -40 -4 -33 -5 6 -12 28 -15 50 -39 339
-181 552 -460 690 -131 65 -328 112 -379 90 -11 -4 -18 -3 -18 3 0 6 8 12 18
14 21 5 -62 24 -184 43 -112 17 -376 30 -386 20z m520 -102 c-12 -15 -48 -18
-48 -4 0 11 19 19 42 18 13 -1 14 -4 6 -14z m-184 -8 c3 -8 1 -15 -5 -15 -6 0
-9 -8 -7 -17 1 -10 -1 -24 -6 -31 -18 -29 4 -21 43 14 43 40 72 50 99 34 15
-8 15 -9 -2 -10 -15 0 -16 -2 -6 -15 7 -9 19 -14 26 -11 8 3 17 -2 22 -10 7
-12 14 -13 35 -5 24 9 27 8 28 -12 1 -12 1 -26 0 -30 -1 -5 3 -6 8 -3 11 7 51
-40 51 -60 0 -8 -4 -14 -10 -14 -5 0 -7 -7 -3 -16 3 -9 13 -14 24 -11 11 3 19
1 19 -5 0 -6 6 -8 14 -5 16 6 10 -29 -7 -40 -6 -4 -7 -1 -2 7 6 10 4 12 -9 7
-10 -4 -23 -7 -29 -7 -7 0 -6 -4 3 -10 8 -5 11 -10 6 -10 -5 0 -3 -6 3 -14 9
-11 9 -14 -1 -13 -36 1 -47 -6 -57 -34 -8 -24 -15 -29 -30 -24 -14 4 -23 0
-31 -15 -9 -16 -15 -18 -30 -10 -13 7 -33 7 -62 0 -68 -15 -168 -13 -174 5 -3
8 -1 50 5 92 7 43 16 110 21 149 9 71 36 154 50 154 4 0 10 -7 14 -15z m-284
-69 c-6 -34 -6 -91 0 -91 1 0 3 -27 5 -60 2 -33 4 -65 4 -72 1 -6 9 -19 18
-29 13 -13 14 -19 5 -22 -17 -5 -15 -22 3 -22 9 0 17 14 21 39 4 25 11 38 18
35 17 -6 15 -84 -1 -84 -7 0 -13 -6 -13 -12 0 -9 -4 -8 -11 2 -8 11 -12 12
-16 3 -2 -7 -10 -13 -15 -13 -6 0 -9 3 -5 6 3 4 0 19 -8 34 -8 15 -12 29 -10
32 2 2 -3 44 -11 93 -22 133 -24 165 -12 165 6 0 8 12 5 30 -6 27 -5 29 12 18
15 -9 17 -18 11 -52z m155 34 c3 -5 3 -10 -2 -10 -12 0 -14 -68 -2 -75 6 -4 3
-12 -8 -21 -16 -12 -15 -13 17 -14 29 -1 31 -3 15 -10 -11 -5 -15 -9 -10 -9 6
-1 3 -6 -5 -11 -11 -7 -12 -12 -3 -21 14 -14 0 -49 -19 -49 -6 0 -16 -7 -22
-15 -8 -11 -9 14 -5 97 4 62 10 121 14 131 8 19 21 22 30 7z m-925 -99 c0 -10
-7 -22 -16 -25 -12 -5 -15 -2 -10 10 3 8 6 20 6 25 0 5 5 9 10 9 6 0 10 -9 10
-19z m-40 6 c0 -2 -10 -12 -21 -23 -22 -19 -22 -19 -10 4 10 18 31 31 31 19z
m150 -1 c0 -3 -4 -8 -10 -11 -5 -3 -10 -1 -10 4 0 6 5 11 10 11 6 0 10 -2 10
-4z m-150 -77 c-5 -18 -7 -36 -4 -40 3 -5 0 -9 -5 -9 -6 0 -11 7 -11 15 0 8
-5 15 -11 15 -6 0 -3 7 5 16 9 8 16 20 16 25 0 5 4 9 9 9 6 0 6 -12 1 -31z
m53 -19 c-3 -11 -7 -20 -9 -20 -2 0 -4 9 -4 20 0 11 4 20 9 20 5 0 7 -9 4 -20z
m894 -72 c-3 -7 -5 -2 -5 12 0 14 2 19 5 13 2 -7 2 -19 0 -25z m-30 -40 c-3
-7 -5 -2 -5 12 0 14 2 19 5 13 2 -7 2 -19 0 -25z m-820 -23 c0 -8 -4 -15 -9
-15 -4 0 -8 7 -8 15 0 8 4 15 8 15 5 0 9 -7 9 -15z m68 -25 c3 -5 -1 -10 -9
-10 -9 0 -16 5 -16 10 0 6 4 10 9 10 6 0 13 -4 16 -10z m-40 -11 c11 -16 1
-19 -13 -3 -7 8 -8 14 -3 14 5 0 13 -5 16 -11z m250 -109 c-3 -5 -11 -10 -16
-10 -6 0 -7 5 -4 10 3 6 11 10 16 10 6 0 7 -4 4 -10z m-568 -110 c9 0 13 -3
10 -6 -3 -4 -2 -16 4 -28 9 -18 8 -19 -3 -6 -7 9 -24 24 -38 34 -16 12 -18 16
-7 12 10 -3 26 -6 34 -6z m-77 -27 c0 -3 -7 -3 -15 1 -10 3 -15 -1 -15 -13 0
-11 6 -22 13 -24 9 -4 9 -6 -1 -6 -16 -1 -26 24 -18 44 5 13 36 11 36 -2z
m164 -24 c-2 -4 4 -10 13 -12 12 -3 8 -5 -9 -6 -25 -1 -43 10 -33 21 8 8 34 5
29 -3z m71 -9 c-3 -5 -12 -10 -18 -10 -7 0 -6 4 3 10 19 12 23 12 15 0z m-48
-26 c-3 -3 -12 -4 -19 -1 -8 3 -5 6 6 6 11 1 17 -2 13 -5z m200 -20 c-3 -3
-12 -4 -19 -1 -8 3 -5 6 6 6 11 1 17 -2 13 -5z m-184 -21 c-7 -2 -19 -2 -25 0
-7 3 -2 5 12 5 14 0 19 -2 13 -5z m115 0 c-10 -2 -26 -2 -35 0 -10 3 -2 5 17
5 19 0 27 -2 18 -5z m55 0 c-7 -2 -19 -2 -25 0 -7 3 -2 5 12 5 14 0 19 -2 13
-5z m-379 -124 c-6 -11 -24 -2 -24 11 0 5 7 7 15 4 8 -4 12 -10 9 -15z m393
-675 c-3 -3 -12 -4 -19 -1 -8 3 -5 6 6 6 11 1 17 -2 13 -5z m152 -68 c10 -12
8 -13 -8 -9 -12 3 -21 9 -21 14 0 14 16 11 29 -5z m1255 -12 c3 -8 2 -12 -4
-9 -6 3 -10 10 -10 16 0 14 7 11 14 -7z"/>
<path d="M1990 2440 c0 -5 5 -10 11 -10 5 0 7 5 4 10 -3 6 -8 10 -11 10 -2 0
-4 -4 -4 -10z"/>
<path d="M458 2353 c7 -3 16 -2 19 1 4 3 -2 6 -13 5 -11 0 -14 -3 -6 -6z"/>
<path d="M550 2310 c0 -13 11 -13 30 0 12 8 11 10 -7 10 -13 0 -23 -4 -23 -10z"/>
<path d="M981 2004 c0 -11 3 -14 6 -6 3 7 2 16 -1 19 -3 4 -6 -2 -5 -13z"/>
<path d="M930 1996 c0 -2 9 -6 20 -9 11 -3 18 -1 14 4 -5 9 -34 13 -34 5z"/>
<path d="M710 1910 c17 -11 67 -14 57 -3 -4 3 -22 8 -39 10 -24 2 -29 0 -18
-7z"/>
<path d="M2441 1258 c-14 -23 -14 -23 8 -4 22 20 25 26 13 26 -4 0 -13 -10
-21 -22z"/>
<path d="M2110 1150 c-8 -5 -12 -12 -9 -15 4 -3 12 1 19 10 14 17 11 19 -10 5z"/>
<path d="M1600 1120 c0 -5 7 -10 16 -10 8 0 12 5 9 10 -3 6 -10 10 -16 10 -5
0 -9 -4 -9 -10z"/>
<path d="M1660 1088 c79 -35 85 -37 165 -50 11 -2 25 -8 30 -15 9 -11 57 -16
133 -14 25 1 35 6 39 21 3 11 10 20 16 20 5 0 2 9 -8 20 -24 27 -31 25 -38 -8
-6 -27 -7 -28 -69 -26 -61 2 -118 16 -203 48 -22 8 -51 15 -65 15 l-25 0 25
-11z"/>
</g>
</svg>
